<svg width="101" height="36" viewBox="0 0 101 36" fill="none" xmlns="http://www.w3.org/2000/svg">
<path d="M11.2211 35.3688C8.24156 35.2525 5.80381 34.4518 3.89769 32.9647C3.53392 32.6806 2.66708 31.8288 2.37626 31.4696C1.6033 30.5151 1.0778 29.5862 0.727286 28.5555C-0.351284 25.3829 0.203817 21.2196 2.31504 16.6506C4.12269 12.7389 6.91197 8.85926 11.7783 3.48601C12.4951 2.69535 14.6298 0.382996 14.6436 0.382996C14.6487 0.382996 14.5324 0.580914 14.3859 0.821918C13.1206 2.90328 12.038 5.35491 11.4482 7.47735C10.5007 10.883 10.615 13.8056 11.7829 16.0719C12.5885 17.6331 13.9696 18.9855 15.5227 19.733C18.2415 21.0413 22.2222 21.1495 27.0834 20.0497C27.4181 19.9735 44.0027 15.65 63.9384 10.4416C83.8741 5.23266 100.188 0.97424 100.19 0.977747C100.196 0.982256 53.8741 20.448 29.8278 30.5467C26.0196 32.1455 25.0012 32.5494 23.2109 33.1667C18.6344 34.745 14.5349 35.498 11.2211 35.3688Z" fill="white"/>
</svg>
